<svg width="36" height="37" viewBox="0 0 36 37" fill="none" xmlns="http://www.w3.org/2000/svg">
<g clip-path="url(#clip0_328_215887)">
<path fill-rule="evenodd" clip-rule="evenodd" d="M23.4756 0.973511V2.61445C23.4756 7.71577 27.6109 11.8512 32.7123 11.8512V16.3512C29.1559 16.3512 25.915 14.9997 23.4756 12.7822V26.4789H18.9756V0.973511H23.4756ZM7.06641 26.4792C7.06641 23.1905 9.73248 20.5244 13.0212 20.5244V16.0244C7.24719 16.0244 2.56641 20.7051 2.56641 26.4792C2.56641 32.2532 7.24719 36.9339 13.0212 36.9339C18.7953 36.9339 23.4756 32.2529 23.4756 26.4789H18.9756C18.9756 29.7677 16.3099 32.4339 13.0212 32.4339C9.73248 32.4339 7.06641 29.768 7.06641 26.4792Z" fill="white"/>
</g>
<defs>
<clipPath id="clip0_328_215887">
<rect width="36" height="36" fill="white" transform="translate(0 0.973511)"/>
</clipPath>
</defs>
</svg>
