<svg width="37" height="37" viewBox="0 0 37 37" fill="none" xmlns="http://www.w3.org/2000/svg">
<g clip-path="url(#clip0_328_215875)">
<path fill-rule="evenodd" clip-rule="evenodd" d="M1.90599 1.87446L0.882812 1.56824L0.942107 2.63461C1.01315 3.91237 1.04998 5.22102 1.08724 6.54483C1.17749 9.75202 1.27026 13.0483 1.8582 16.2105C2.21324 18.7028 3.6621 20.5403 5.50459 21.8181C6.83755 22.7426 8.39098 23.3867 9.93553 23.796L9.57715 24.0408C9.16126 24.3248 8.74903 24.6062 8.34927 24.8861C7.43266 25.5282 6.55897 26.1773 6.09712 26.7266C5.34792 27.6174 5.08237 28.8084 5.13756 29.8827C5.19174 30.9374 5.56377 32.03 6.28141 32.7267C7.62894 34.1817 8.50428 34.8419 9.38892 35.4722L9.41769 35.4927L9.44826 35.5104C10.1492 35.9163 11.2051 36.3867 12.3997 36.4202C13.6327 36.4548 14.9569 36.0203 16.1134 34.7157C17.3899 33.2757 17.9062 32.6817 18.8504 31.3907C19.7948 32.6817 20.3111 33.2757 21.5878 34.7157C22.7441 36.0203 24.0683 36.4548 25.3013 36.4202C26.4959 36.3867 27.5518 35.9163 28.2527 35.5104L28.2833 35.4927L28.3121 35.4722C29.1968 34.8419 30.0721 34.1817 31.4197 32.7267C32.1373 32.03 32.5093 30.9374 32.5634 29.8827C32.6186 28.8084 32.3531 27.6174 31.6039 26.7266C31.142 26.1773 30.2684 25.5282 29.3518 24.8861C28.952 24.6062 28.5398 24.3248 28.1239 24.0408L27.7655 23.796C29.3101 23.3867 30.8635 22.7426 32.1965 21.8181C34.039 20.5403 35.4878 18.7028 35.8429 16.2105C36.4307 13.0483 36.5236 9.75201 36.6137 6.54481C36.6511 5.22108 36.6878 3.9123 36.7589 2.63461L36.8182 1.56824L35.795 1.87446C28.8287 3.95938 22.8976 7.71571 18.8506 13.9896C14.8035 7.71571 8.8723 3.95938 1.90599 1.87446Z" fill="white"/>
</g>
<defs>
<clipPath id="clip0_328_215875">
<rect width="36" height="36" fill="white" transform="translate(0.851562 0.973511)"/>
</clipPath>
</defs>
</svg>
